# xmcd
#
# Track frame offsets: 
#        150
#        17554
#        34317
#        74377
#        106476
#        144340
#
# Disc length: 2446 seconds
#
# Revision: 0
# Processed by: cddbd v1.5.1PL2 Copyright (c) Steve Scherf et al.
# Submitted via: ExactAudioCopy v0.95a5
#
DISCID=4d098c06
DTITLE=Docking Station - Calling Mars
DYEAR=1900
DGENRE=
TTITLE0=single edit
TTITLE1=ray kox single edit
TTITLE2=original mix
TTITLE3=dj slide out remix
TTITLE4=dj arne ui and dj mirko milano rmx
TTITLE5=ray knox rmx
EXTD=
EXTT0=
EXTT1=
EXTT2=
EXTT3=
EXTT4=
EXTT5=
PLAYORDER=
